HIERARCHY
ROOT Hips
{
  OFFSET -31.5692 30.0904 122.763
  CHANNELS 6 Xposition Yposition Zposition Zrotation Xrotation Yrotation
  JOINT LeftUpLeg
  {
    OFFSET 8.64259 1.95398 -2.38835
    CHANNELS 3 Zrotation Xrotation Yrotation
    JOINT LeftLeg
    {
      OFFSET 43.7702 0 0
      CHANNELS 3 Zrotation Xrotation Yrotation
      JOINT LeftFoot
      {
        OFFSET 40.6238 0 0
        CHANNELS 3 Zrotation Xrotation Yrotation
        JOINT LeftToeBase
        {
          OFFSET 12.7242 0 0
          CHANNELS 3 Zrotation Xrotation Yrotation
          End Site
          {
            OFFSET 0 0 0
          }
        }
      }
    }
  }
  JOINT RightUpLeg
  {
    OFFSET -8.2249 1.95398 -2.59336
    CHANNELS 3 Zrotation Xrotation Yrotation
    JOINT RightLeg
    {
      OFFSET 43.5653 0 0
      CHANNELS 3 Zrotation Xrotation Yrotation
      JOINT RightFoot
      {
        OFFSET 40.6238 0 0
        CHANNELS 3 Zrotation Xrotation Yrotation
        JOINT RightToeBase
        {
          OFFSET 12.7242 0 0
          CHANNELS 3 Zrotation Xrotation Yrotation
          End Site
          {
            OFFSET 0 0 0
          }
        }
      }
    }
  }
  JOINT Spine
  {
    OFFSET 0.165834 0.87714 6.61349
    CHANNELS 3 Zrotation Xrotation Yrotation
    JOINT Spine1
    {
      OFFSET 7.38963 1.71661e-005 0
      CHANNELS 3 Zrotation Xrotation Yrotation
      JOINT Spine2
      {
        OFFSET 11.9445 1.14441e-005 0
        CHANNELS 3 Zrotation Xrotation Yrotation
        JOINT Spine3
        {
          OFFSET 14.7254 4.19617e-005 0
          CHANNELS 3 Zrotation Xrotation Yrotation
          JOINT Spine4
          {
            OFFSET 10.9679 0 0
            CHANNELS 3 Zrotation Xrotation Yrotation
            JOINT RightShoulder
            {
              OFFSET 2.46616 -1.6653 3.69651
              CHANNELS 3 Zrotation Xrotation Yrotation
              JOINT RightArm
              {
                OFFSET 13.0012 0 0
                CHANNELS 3 Zrotation Xrotation Yrotation
                JOINT RightForeArm
                {
                  OFFSET 28.7848 1.62311e-005 0
                  CHANNELS 3 Zrotation Xrotation Yrotation
                  JOINT RightHand
                  {
                    OFFSET 26.5688 1.62095e-005 0
                    CHANNELS 3 Zrotation Xrotation Yrotation
                    End Site
                    {
                      OFFSET 0 0 0
                    }
                  }
                }
              }
            }
            JOINT LeftShoulder
            {
              OFFSET 2.38034 -1.29275 -3.7523
              CHANNELS 3 Zrotation Xrotation Yrotation
              JOINT LeftArm
              {
                OFFSET 16.3182 6.07031e-005 0
                CHANNELS 3 Zrotation Xrotation Yrotation
                JOINT LeftForeArm
                {
                  OFFSET 27.0901 0 0
                  CHANNELS 3 Zrotation Xrotation Yrotation
                  JOINT LeftHand
                  {
                    OFFSET 24.5451 1.51738e-005 0
                    CHANNELS 3 Zrotation Xrotation Yrotation
                    End Site
                    {
                      OFFSET 0 0 0
                    }
                  }
                }
              }
            }
            JOINT Neck
            {
              OFFSET 5.0226 -0.0266342 0
              CHANNELS 3 Zrotation Xrotation Yrotation
              JOINT Head
              {
                OFFSET 6.69364 2.86102e-005 0
                CHANNELS 3 Zrotation Xrotation Yrotation
                End Site
                {
                  OFFSET 0 0 0
                }
              }
            }
          }
        }
      }
    }
  }
}
MOTION
Frames:	12
Frame Time:	0.0416667
-5.46001 99.3089 368.308 -144.791 -82.0223 -145.156 -172.286 -6.35672 90.9711 -9.1518 6.25785 0.307861 66.9692 4.78326 0.25529 22.673 -4.81935 4.60164 172.805 -3.73634 88.6264 -11.1277 -12.2916 -1.87535 64.7286 -2.73851 0.0641324 27.0506 0.0818589 3.32439 0.465007 7.54101 -90.3333 11.7941 0.768162 -0.74603 0.123169 0.734588 -0.779119 -22.413 0.956859 -0.480672 -2.40032 0.956858 -0.480671 91.5944 -28.2132 -104.204 40.5349 -9.26066 -6.31137 8.88656 -29.6823 -11.1258 -28.9947 -0.272457 -8.62018 -89.3552 -53.5623 80.3946 -24.418 13.2182 -13.1193 -5.49564 8.19858 -0.00856909 -1.06219 0.169892 -15.5505 4.76425 -2.75167 -0.168723 -9.36987 -2.73254 0.98966 
-5.48651 99.3213 368.309 -144.59 -82.0295 -144.793 -171.983 -6.08657 91.3569 -9.68219 6.02013 0.112045 68.7799 5.63884 -1.06724 18.5361 -8.20091 6.91304 172.809 -3.87231 88.7762 -10.8406 -12.6298 -1.78972 64.6246 -2.82595 -0.169583 26.9418 0.227009 2.87329 0.43062 7.52374 -90.3192 11.8291 0.706241 -0.711671 0.158149 0.67424 -0.742071 -22.3778 0.887479 -0.466504 -2.36515 0.887472 -0.466519 90.8666 -28.8954 -105.431 39.9895 -8.08806 -6.00523 6.72931 -30.7827 -13.2405 -30.2247 -0.698348 -6.86881 -89.3504 -52.2643 80.1542 -24.502 13.8014 -12.3356 -6.55874 8.16118 -0.00856828 0.50879 -0.128162 -18.9219 4.25214 -2.58078 -1.5864 -9.0303 -2.38619 2.48709 
-5.58092 99.3332 368.327 -145.078 -82.3114 -145.309 -172.058 -5.81188 91.3752 -9.74653 6.05666 0.222017 68.5305 5.39167 -1.30027 19.0947 -7.66705 6.46473 172.811 -3.79168 88.8192 -10.6413 -12.4454 -1.69412 64.4972 -2.76898 -0.257538 26.9533 0.177679 3.07596 0.301113 7.53588 -90.1303 11.8026 0.537642 -0.316807 0.131672 0.523176 -0.340167 -22.4043 0.607991 -0.140572 -2.39162 0.607995 -0.140574 89.1049 -31.2106 -108.046 38.5242 -7.98167 -6.33936 7.0914 -29.8801 -12.8824 -30.0654 -0.613356 -7.09991 -88.0642 -49.3774 81.5127 -26.2368 11.3723 -12.1546 -5.24168 13.313 -0.00871573 0.163891 0.141306 -18.5112 4.18399 -2.38991 -2.79042 -8.8056 -1.91794 1.13241 
-5.91195 99.3318 368.329 -149.675 -82.7501 -149.922 -171.517 -5.72714 91.9598 -9.53905 7.38471 -0.200768 68.4735 5.61035 -1.24076 19.0861 -7.6988 6.52129 173.038 -3.71417 89.1376 -10.9712 -11.9445 -1.69233 64.4524 -2.59623 -0.49711 26.9704 0.247169 2.7243 0.273298 7.53328 -90.1916 11.8081 0.453453 -0.430292 0.137191 0.434081 -0.449831 -22.3983 0.561803 -0.274114 -2.38567 0.561806 -0.274113 89.4405 -30.5807 -107.637 38.868 -7.52761 -6.12191 6.69057 -30.1253 -12.9155 -26.8771 -0.458099 -7.96132 -88.4453 -50.5559 81.1599 -25.0254 11.9545 -12.2356 -5.82604 13.0807 -0.00870745 -0.68708 0.225938 -19.3754 3.91669 -2.31526 -1.51732 -8.46203 -2.02818 0.202511 
-6.41064 99.2999 368.223 -152.702 -82.4198 -153.05 -171.045 -5.89294 92.4794 -9.85647 7.41716 -0.443208 68.64 5.85102 -1.76758 19.2338 -7.5 6.2813 173.167 -3.67428 89.4042 -11.9461 -11.6059 -1.74797 64.817 -2.65327 -0.685878 26.8334 0.301722 2.7501 0.285161 7.60444 -90.1816 11.6658 0.482134 -0.412169 -0.00510185 0.463527 -0.433007 -22.5407 0.583713 -0.248216 -2.52809 0.583715 -0.248222 89.3267 -30.968 -107.707 38.1858 -7.39582 -5.83086 6.45604 -29.6618 -13.4045 -22.8187 -0.268234 -9.33346 -88.1239 -51.2534 81.765 -24.3621 11.7487 -12.8454 -5.13555 11.8724 -0.00866691 5.3223 -0.531269 -16.9394 2.66813 -2.81278 -1.23425 -7.22463 -2.55358 -0.748359 
-7.06081 99.2508 367.854 -152.406 -82.3196 -153.241 -170.806 -5.42755 92.5826 -10.4338 7.62108 -0.76921 68.3969 6.01448 -1.86405 19.3942 -7.69348 6.89365 173.133 -2.87444 89.3482 -13.3076 -11.7055 -1.72587 65.4214 -2.82508 -0.903149 26.7539 0.391301 2.50229 0.381964 7.63951 -90.0838 11.5958 0.720616 -0.241474 -0.0749741 0.70929 -0.272958 -22.6117 0.759872 -0.0137145 -2.59909 0.75987 -0.0137226 88.9825 -31.1319 -108.311 38.2934 -7.49044 -5.80023 6.99773 -29.5446 -12.6972 -25.499 -0.38068 -8.34937 -87.9019 -51.4316 82.1248 -23.5392 11.9206 -12.2672 -5.45034 8.47264 0.00478785 5.70041 -0.907889 -19.3852 3.25218 -2.20585 -1.70319 -8.34727 -1.91397 0.603992 
-8.06202 99.0963 367.056 -163.123 -82.6553 -164.493 -170.786 -3.98015 92.5329 -12.3064 9.28973 -0.736743 68.2608 6.32381 -1.76721 20.2096 -7.28285 7.03854 173.566 -1.93158 89.7791 -15.0286 -10.0037 -1.84443 66.2895 -2.84212 -1.32457 25.7484 0.753089 2.86414 0.401509 7.73729 -90.0468 11.4 0.777112 -0.17191 -0.270765 0.768789 -0.205956 -22.8078 0.792843 0.0696056 -2.79513 0.792846 0.0696003 88.9977 -30.6334 -108.483 38.1385 -7.31797 -5.80593 6.53923 -29.7089 -13.2008 -24.3092 -0.346473 -8.7099 -87.8832 -52.561 82.347 -23.084 10.2897 -11.9889 -3.54529 4.01601 -0.032219 2.48951 -0.603763 -20.0202 2.42031 -2.90146 -0.279859 -6.96277 -2.78525 -1.50974 
-9.28603 98.7552 365.623 175.461 -83.4032 173.318 -171.824 0.519385 92.4085 -16.6728 11.3363 -0.0895769 67.9677 6.5084 -1.19486 20.8348 -7.68838 8.737 173.387 0.903463 89.9562 -18.2324 -7.92833 -1.14361 67.7699 -2.99473 -1.99332 24.5318 1.24308 3.05987 0.455104 7.82772 -89.9541 11.2191 0.927134 0.000354264 -0.451565 0.92626 -0.0404693 -22.9892 0.88416 0.279005 -2.97656 0.884162 0.27899 89.2733 -30.1157 -108.15 38.2598 -7.53053 -6.06016 6.55297 -30.5873 -13.283 -23.387 -0.235788 -9.658 -88.2316 -52.96 81.9085 -20.0863 10.9225 -10.1225 -4.45718 2.17237 -3.78103 6.87763 -1.06098 -17.7645 3.19424 -4.00961 1.4843 -6.31192 -4.0862 -4.85725 
-10.5451 98.3124 363.72 139.726 -82.7919 136.76 -172.522 7.20825 92.0863 -23.9024 15.162 -0.0312576 66.6416 5.30588 -1.30003 21.144 -7.46497 8.65599 172.672 4.45244 89.6234 -20.9597 -4.87977 0.166594 68.8807 -2.81257 -2.16074 23.6737 1.42555 3.83472 0.427261 7.86872 -89.8305 11.1356 0.929246 0.246945 -0.534997 0.939207 0.205803 -23.0721 0.812056 0.514816 -3.05947 0.812066 0.51482 89.3704 -30.011 -108 38.3518 -7.52792 -5.4907 6.36518 -29.5207 -13.8036 -24.0435 -0.170855 -9.67809 -87.682 -52.1209 82.567 -20.0465 7.78532 -10.6778 -3.86782 6.2398 -2.19408 6.85834 -1.15368 -19.3945 4.85268 -5.93988 0.153771 -4.9307 -5.82391 -4.16 
-11.453 98.0789 362.398 124.57 -79.8286 121.182 -172.39 10.9957 91.8157 -32.5299 14.5976 -0.0231556 72.1981 8.13469 -3.44148 15.6011 -14.4752 15.2067 172.357 5.52554 89.6573 -22.1592 -1.36836 0.820374 69.6279 -2.25191 -1.99629 22.3904 1.87873 4.22945 0.388745 7.98965 -89.8402 10.8938 0.847876 0.238026 -0.776874 0.857529 0.200472 -23.3136 0.737138 0.481857 -3.30099 0.737135 0.481849 89.539 -29.8739 -107.721 37.5601 -6.98265 -4.72945 6.58123 -29.2044 -13.1992 -23.9027 -0.154165 -9.72909 -88.3515 -51.2005 81.4192 -21.0661 6.8685 -8.16051 -3.08578 2.96103 -4.00254 5.9309 -1.03395 -18.4214 5.81475 -6.74249 -1.14686 -3.96167 -6.39724 -3.9347 
-11.9298 98.1668 361.516 123.28 -77.6901 119.739 -172.15 12.3637 92.0222 -44.3264 14.2302 0.805617 69.4096 6.13632 -1.51228 21.1836 -7.34438 8.50231 171.997 5.09919 89.6016 -22.1794 -0.18133 1.20012 69.1819 -2.00571 -2.12671 22.3635 1.8496 4.38198 0.336673 8.00019 -89.8582 10.873 0.735881 0.212997 -0.79775 0.744547 0.18039 -23.3341 0.637841 0.424318 -3.32142 0.637849 0.424322 89.9893 -29.9812 -106.787 37.9091 -6.26986 -3.28133 6.60118 -27.8624 -12.6581 -24.0721 -0.139948 -9.47924 -87.6943 -50.9781 82.3535 -21.0645 7.61927 -6.24127 -4.04161 4.73062 -1.14961 -0.0672623 -0.0592641 -21.695 4.04201 -6.7886 -2.65481 -3.6684 -6.21584 -3.87999 
-11.9793 98.1926 360.818 124.958 -76.4068 121.63 -171.543 9.78551 93.3369 -51.4309 16.6731 1.79091 67.6714 4.82368 -1.06673 21.3481 -7.1634 8.261 171.868 4.16468 89.7159 -21.6587 0.274036 1.36332 68.9692 -2.01114 -2.26211 22.0207 2.06034 4.14779 0.163921 7.96809 -89.9134 10.9373 0.366452 0.13743 -0.733558 0.372141 0.121158 -23.269 0.308197 0.241206 -3.25632 0.308208 0.241206 90.2538 -30.3313 -106.132 38.4416 -5.83176 -1.53805 6.53117 -26.7355 -12.6785 -23.6504 -0.0122935 -10.023 -87.7614 -50.6413 82.1952 -23.1655 5.88421 -2.77554 -0.125092 3.66019 0.0298931 -2.3625 0.183465 -18.1983 2.8616 -6.22277 -3.112 -4.45671 -5.59523 -4.38154 
